<svg xmlns="http://www.w3.org/2000/svg" viewBox="0 0 900 1125" role="img" aria-labelledby="title desc">
  <title id="title">ADGA deal execution workspace</title>
  <desc id="desc">A premium abstract product visual showing a deal record, timeline, document stack, and AI action queue.</desc>
  <defs>
    <linearGradient id="bg" x1="0" y1="0" x2="1" y2="1">
      <stop offset="0" stop-color="#fbfafc"/>
      <stop offset=".46" stop-color="#efeaf8"/>
      <stop offset="1" stop-color="#ffffff"/>
    </linearGradient>
    <linearGradient id="purple" x1="0" y1="0" x2="1" y2="1">
      <stop offset="0" stop-color="#7c3aed"/>
      <stop offset="1" stop-color="#4c1d95"/>
    </linearGradient>
    <filter id="shadow" x="-20%" y="-20%" width="140%" height="140%">
      <feDropShadow dx="0" dy="28" stdDeviation="24" flood-color="#24133f" flood-opacity=".14"/>
    </filter>
  </defs>
  <rect width="900" height="1125" fill="url(#bg)"/>
  <circle cx="720" cy="210" r="160" fill="#5b21b6" opacity=".09"/>
  <circle cx="190" cy="920" r="210" fill="#2563eb" opacity=".06"/>
  <g filter="url(#shadow)">
    <rect x="94" y="106" width="712" height="834" rx="34" fill="#fff" opacity=".92"/>
    <rect x="134" y="150" width="632" height="76" rx="18" fill="#f5f2fb"/>
    <rect x="164" y="176" width="186" height="12" rx="6" fill="#17151f"/>
    <rect x="164" y="198" width="274" height="9" rx="5" fill="#8b8498"/>
    <rect x="618" y="172" width="108" height="30" rx="15" fill="url(#purple)"/>
    <rect x="134" y="270" width="292" height="218" rx="22" fill="#f8f6fc" stroke="#e8e1f2"/>
    <rect x="472" y="270" width="294" height="218" rx="22" fill="#f8f6fc" stroke="#e8e1f2"/>
    <rect x="168" y="308" width="126" height="13" rx="7" fill="#17151f"/>
    <rect x="168" y="342" width="214" height="10" rx="5" fill="#8b8498"/>
    <rect x="168" y="370" width="170" height="10" rx="5" fill="#b6afc5"/>
    <path d="M168 432h218" stroke="#ded7ea" stroke-width="3"/>
    <path d="M168 432c34-78 88-68 118-26s68 58 100-20" fill="none" stroke="#5b21b6" stroke-width="14" stroke-linecap="round"/>
    <rect x="508" y="308" width="154" height="13" rx="7" fill="#17151f"/>
    <rect x="508" y="342" width="192" height="10" rx="5" fill="#8b8498"/>
    <rect x="508" y="386" width="218" height="40" rx="12" fill="#ede7f8"/>
    <rect x="528" y="400" width="84" height="11" rx="6" fill="#5b21b6"/>
    <rect x="134" y="528" width="632" height="286" rx="24" fill="#faf9fc" stroke="#e8e1f2"/>
    <rect x="174" y="576" width="206" height="14" rx="7" fill="#17151f"/>
    <g fill="#d8d2e5">
      <rect x="174" y="636" width="502" height="2"/>
      <rect x="174" y="698" width="502" height="2"/>
      <rect x="174" y="760" width="502" height="2"/>
    </g>
    <g>
      <circle cx="190" cy="636" r="8" fill="#5b21b6"/>
      <circle cx="190" cy="698" r="8" fill="#5b21b6" opacity=".7"/>
      <circle cx="190" cy="760" r="8" fill="#5b21b6" opacity=".45"/>
      <rect x="222" y="620" width="196" height="13" rx="7" fill="#17151f"/>
      <rect x="222" y="642" width="292" height="9" rx="5" fill="#8b8498"/>
      <rect x="222" y="682" width="232" height="13" rx="7" fill="#17151f"/>
      <rect x="222" y="704" width="328" height="9" rx="5" fill="#8b8498"/>
      <rect x="222" y="744" width="174" height="13" rx="7" fill="#17151f"/>
      <rect x="222" y="766" width="258" height="9" rx="5" fill="#8b8498"/>
    </g>
  </g>
</svg>
