<svg xmlns="http://www.w3.org/2000/svg" viewBox="0 0 900 900" role="img" aria-labelledby="title desc">
  <title id="title">Follow-up workflow visual</title>
  <desc id="desc">A contact follow-up timeline with email, phone, meeting, and voice-note actions.</desc>
  <defs>
    <linearGradient id="bg" x1="0" y1="0" x2="1" y2="1"><stop stop-color="#fbfafc"/><stop offset="1" stop-color="#edf3fb"/></linearGradient>
    <linearGradient id="p" x1="0" y1="0" x2="1" y2="1"><stop stop-color="#6d28d9"/><stop offset="1" stop-color="#4c1d95"/></linearGradient>
    <filter id="s"><feDropShadow dx="0" dy="22" stdDeviation="18" flood-color="#201836" flood-opacity=".12"/></filter>
  </defs>
  <rect width="900" height="900" fill="url(#bg)"/>
  <g filter="url(#s)">
    <rect x="124" y="134" width="652" height="632" rx="34" fill="#fff"/>
    <rect x="174" y="190" width="190" height="18" rx="9" fill="#17151f"/>
    <rect x="174" y="226" width="300" height="12" rx="6" fill="#8d8797"/>
    <path d="M248 306v350" stroke="#e3deec" stroke-width="6" stroke-linecap="round"/>
    <g>
      <circle cx="248" cy="332" r="22" fill="url(#p)"/>
      <rect x="306" y="306" width="320" height="70" rx="18" fill="#f7f4fb" stroke="#e6dff1"/>
      <rect x="332" y="328" width="138" height="12" rx="6" fill="#17151f"/>
      <rect x="332" y="350" width="224" height="9" rx="5" fill="#8d8797"/>
    </g>
    <g>
      <circle cx="248" cy="452" r="22" fill="#6d28d9" opacity=".72"/>
      <rect x="306" y="426" width="372" height="70" rx="18" fill="#f7f4fb" stroke="#e6dff1"/>
      <rect x="332" y="448" width="188" height="12" rx="6" fill="#17151f"/>
      <rect x="332" y="470" width="260" height="9" rx="5" fill="#8d8797"/>
    </g>
    <g>
      <circle cx="248" cy="572" r="22" fill="#6d28d9" opacity=".46"/>
      <rect x="306" y="546" width="288" height="70" rx="18" fill="#f7f4fb" stroke="#e6dff1"/>
      <rect x="332" y="568" width="154" height="12" rx="6" fill="#17151f"/>
      <rect x="332" y="590" width="202" height="9" rx="5" fill="#8d8797"/>
    </g>
  </g>
</svg>
